<svg width="37" height="36" viewBox="0 0 37 36" fill="none" xmlns="http://www.w3.org/2000/svg">
<g clip-path="url(#clip0_455_57)">
<g filter="url(#filter0_d_455_57)">
<path d="M30.5 9C31.37 9 32.075 9.3 32.63 9.885C33.2 10.5 33.5 11.175 33.5 12V28.5C33.5 29.325 33.2 30 32.63 30.615C32.075 31.2 31.37 31.5 30.5 31.5H6.5C5.63 31.5 4.925 31.2 4.37 30.615C3.8 30 3.5 29.325 3.5 28.5V12C3.5 11.175 3.8 10.5 4.37 9.885C4.925 9.3 5.63 9 6.5 9H12.5V6C12.5 5.13 12.8 4.425 13.37 3.87C13.925 3.3 14.63 3 15.5 3H21.5C22.37 3 23.075 3.3 23.63 3.87C24.2 4.425 24.5 5.13 24.5 6V9H30.5ZM6.5 12V28.5H30.5V12H6.5ZM21.5 9V6H15.5V9H21.5Z" fill="#3818D9"/>
</g>
</g>
<defs>
<filter id="filter0_d_455_57" x="-0.5" y="3" width="38" height="36.5" filterUnits="userSpaceOnUse" color-interpolation-filters="sRGB">
<feFlood flood-opacity="0" result="BackgroundImageFix"/>
<feColorMatrix in="SourceAlpha" type="matrix" values="0 0 0 0 0 0 0 0 0 0 0 0 0 0 0 0 0 0 127 0" result="hardAlpha"/>
<feOffset dy="4"/>
<feGaussianBlur stdDeviation="2"/>
<feComposite in2="hardAlpha" operator="out"/>
<feColorMatrix type="matrix" values="0 0 0 0 0 0 0 0 0 0 0 0 0 0 0 0 0 0 0.01 0"/>
<feBlend mode="normal" in2="BackgroundImageFix" result="effect1_dropShadow_455_57"/>
<feBlend mode="normal" in="SourceGraphic" in2="effect1_dropShadow_455_57" result="shape"/>
</filter>
<clipPath id="clip0_455_57">
<rect width="36" height="36" fill="white" transform="translate(0.5)"/>
</clipPath>
</defs>
</svg>
